<?xml version="1.0" standalone="no"?>
<!DOCTYPE svg PUBLIC "-//W3C//DTD SVG 20010904//EN"
 "http://www.w3.org/TR/2001/REC-SVG-20010904/DTD/svg10.dtd">
<svg version="1.0" xmlns="http://www.w3.org/2000/svg"
 width="1040.000000pt" height="1040.000000pt" viewBox="0 0 1040.000000 1040.000000"
 preserveAspectRatio="xMidYMid meet">
<metadata>
Created by potrace 1.14, written by Peter Selinger 2001-2017
</metadata>
<g transform="translate(0.000000,1040.000000) scale(0.100000,-0.100000)"
fill="#000000" stroke="none">
<path d="M5190 9550 c-41 -5 -186 -20 -322 -33 -226 -22 -248 -25 -265 -45
-15 -19 -32 -23 -113 -29 -92 -6 -96 -7 -126 -40 -28 -30 -41 -36 -104 -44
-40 -6 -98 -20 -129 -31 -31 -12 -73 -20 -94 -19 -31 1 -43 -4 -67 -29 -16
-17 -46 -36 -67 -42 -20 -5 -48 -22 -62 -37 -35 -37 -63 -51 -104 -51 -23 0
-47 -10 -72 -30 -21 -16 -42 -30 -46 -30 -23 0 -330 -175 -449 -256 -295 -199
-355 -249 -628 -519 -261 -257 -374 -388 -498 -576 -94 -143 -102 -164 -56
-140 83 45 197 87 285 105 71 14 120 31 169 57 10 5 29 9 44 9 14 0 38 8 52
18 38 25 70 39 129 56 28 8 71 25 95 39 35 19 56 24 101 22 31 -2 57 1 57 6 0
5 7 9 16 9 9 0 31 15 50 34 42 42 71 51 84 25 14 -26 50 -25 50 1 0 11 7 23
15 26 8 4 15 12 15 19 0 20 21 32 68 39 38 6 42 4 42 -15 0 -12 5 -19 13 -16
6 2 12 15 12 28 0 16 7 25 20 28 11 2 31 8 45 14 14 6 30 12 35 13 6 1 12 3
15 4 3 1 15 3 27 6 12 2 46 15 75 28 29 13 80 32 113 42 33 10 62 22 63 26 2
5 10 8 17 8 7 0 15 5 17 11 2 6 22 12 45 13 22 2 46 7 52 10 6 4 15 4 21 1 5
-3 38 10 72 29 35 19 81 38 103 42 22 4 60 17 85 29 25 12 74 30 110 40 36 9
70 21 75 25 11 9 92 34 112 35 6 0 15 4 19 8 4 4 22 7 40 7 26 0 36 6 46 28
11 22 23 29 69 38 31 6 88 21 127 33 207 63 809 84 1305 46 l258 -19 6 -28 c3
-16 14 -33 24 -38 23 -13 69 -13 69 0 0 12 51 13 82 1 13 -5 29 -20 37 -33 17
-33 79 -60 120 -52 23 5 37 2 52 -12 21 -19 83 -44 112 -44 22 0 167 -75 231
-119 33 -23 51 -30 54 -22 3 9 10 8 27 -3 13 -9 54 -32 92 -52 95 -50 183
-111 286 -198 49 -40 119 -88 155 -107 57 -29 104 -71 306 -274 265 -266 322
-332 421 -485 37 -58 119 -181 181 -275 76 -113 127 -203 154 -269 23 -55 55
-126 71 -159 17 -32 63 -159 104 -281 115 -347 183 -536 236 -653 10 -23 37
-106 60 -185 38 -130 65 -206 135 -369 13 -31 43 -128 65 -215 23 -88 50 -176
61 -197 41 -82 133 -375 173 -554 9 -40 27 -87 40 -105 26 -35 36 -54 55 -106
16 -40 33 -37 42 9 3 19 11 61 18 94 6 33 11 76 11 95 -1 24 2 31 8 21 32 -50
100 352 132 784 16 216 13 640 -5 860 -22 269 -65 524 -101 612 -15 36 -53
148 -115 337 -17 54 -44 124 -60 155 -15 31 -48 106 -73 167 -62 151 -204 433
-278 552 -149 235 -218 334 -300 429 -24 27 -90 106 -146 174 -108 132 -150
175 -358 365 -71 65 -138 129 -148 142 -33 39 -178 146 -337 247 -85 54 -168
108 -185 121 -27 20 -196 110 -435 231 -47 24 -105 56 -130 71 -58 37 -155 72
-305 113 -66 18 -148 45 -181 60 -119 54 -265 83 -634 125 -165 19 -765 28
-890 14z"/>
<path d="M5019 8171 c-32 -18 -61 -45 -135 -126 -11 -12 -50 -32 -86 -44 -78
-26 -125 -59 -155 -109 -47 -76 -21 -162 88 -295 35 -43 90 -111 121 -150 244
-308 239 -290 115 -411 -54 -53 -104 -91 -142 -109 -33 -16 -67 -33 -76 -37
-39 -20 -87 -22 -125 -4 -72 34 -224 195 -224 237 0 8 32 42 70 77 53 46 80
80 105 131 19 37 45 73 57 80 31 17 122 5 193 -25 33 -14 61 -22 62 -18 2 4
-33 45 -77 91 -80 83 -81 83 -120 77 -124 -19 -109 -23 -176 42 -96 93 -234
146 -320 123 -134 -36 -236 -169 -251 -326 -7 -78 8 -126 58 -187 22 -26 39
-53 39 -60 0 -8 -25 -29 -56 -48 -38 -23 -68 -51 -89 -85 -34 -52 -67 -75
-110 -75 -31 0 -29 17 -27 -184 l2 -129 91 6 c50 4 805 7 1679 7 1166 0 1591
3 1596 11 4 7 8 57 10 112 2 55 6 103 10 106 3 3 4 -20 2 -52 -3 -50 -1 -55
10 -40 9 12 12 34 8 68 -6 58 -26 79 -89 96 -23 6 -47 13 -53 14 -6 2 -30 41
-53 87 -54 106 -79 147 -105 176 -18 20 -22 41 -27 140 -4 92 -10 127 -28 165
-41 90 -134 169 -221 190 -14 4 -48 0 -76 -7 -59 -16 -173 -65 -192 -83 -39
-38 -79 26 -93 145 -17 152 -53 246 -117 310 -55 55 -88 60 -187 27 -81 -27
-126 -59 -151 -107 -13 -25 -12 -29 8 -48 31 -28 56 -25 117 16 73 50 117 54
160 18 91 -76 106 -241 32 -354 -9 -14 -23 -38 -31 -54 -18 -35 -35 -42 -128
-51 -40 -4 -97 -13 -125 -21 -47 -13 -54 -12 -76 4 -14 10 -48 59 -75 110 -55
99 -72 112 -150 112 -64 0 -86 21 -86 81 0 62 24 89 78 89 60 -1 105 -37 136
-111 l14 -32 11 52 c6 29 11 61 11 72 0 11 7 31 16 44 21 32 11 45 -34 45 -20
1 -48 7 -62 15 -36 21 -88 18 -117 -5 -38 -29 -58 -25 -95 22 -78 98 -141 157
-188 177 -73 32 -128 35 -171 12z m83 -106 c40 -27 68 -31 85 -14 23 23 122
-112 138 -188 13 -62 -9 -103 -107 -204 -112 -113 -164 -159 -182 -159 -21 0
-186 112 -233 158 -55 54 -83 110 -83 166 0 58 24 76 112 83 78 7 110 30 167
118 23 36 48 65 54 65 7 0 29 -11 49 -25z m395 -441 c33 -6 97 -75 127 -136
43 -86 30 -189 -33 -259 -39 -44 -34 -43 -271 -69 l-95 -10 -38 42 c-68 76
-93 156 -67 222 11 31 154 182 195 207 24 15 42 18 95 13 36 -3 75 -7 87 -10z
m725 -39 c8 -19 8 -31 0 -50 -25 -54 -65 -9 -43 48 13 34 28 34 43 2z m-1872
-35 c61 -18 84 -31 143 -80 50 -41 45 -63 -47 -190 -68 -95 -84 -136 -66 -170
9 -17 7 -28 -11 -60 -13 -22 -30 -40 -39 -40 -28 0 -94 54 -222 181 -57 56
-67 73 -73 112 -8 53 7 136 32 175 59 92 144 113 283 72z m2277 -1 c74 -28
133 -129 133 -227 0 -63 -27 -131 -94 -235 -21 -33 -44 -74 -52 -93 -14 -34
-14 -34 11 -34 45 0 81 27 125 94 24 37 50 66 57 66 7 0 18 -12 24 -27 6 -16
26 -60 45 -100 19 -39 34 -78 34 -86 0 -12 -21 -15 -112 -16 -62 -1 -128 -4
-145 -6 -18 -3 -49 -7 -68 -10 -41 -7 -44 4 -14 47 18 24 20 34 10 54 -16 36
-55 47 -125 35 -66 -12 -80 -6 -91 37 -3 15 -26 66 -51 114 -62 123 -106 237
-99 258 6 20 95 83 141 101 28 10 177 36 221 38 12 1 34 -4 50 -10z m-581
-129 c14 0 36 -12 50 -27 28 -30 194 -305 194 -322 0 -21 -28 -10 -84 33 -53
41 -60 43 -138 49 -113 9 -155 -2 -198 -53 -22 -25 -43 -40 -57 -40 -20 0 -23
5 -23 44 0 70 20 198 37 233 8 18 31 43 51 55 36 22 105 39 130 32 8 -2 25 -4
38 -4z m-316 -182 c0 -89 -12 -125 -31 -98 -21 31 1 180 27 180 2 0 4 -37 4
-82z m-1546 -240 c37 -40 65 -79 64 -88 -3 -12 -27 -15 -146 -17 -170 -3 -171
-2 -82 94 33 35 60 68 60 73 0 29 45 2 104 -62z m1381 10 c11 -31 23 -60 28
-64 4 -4 7 -18 7 -31 l0 -24 -237 6 c-131 4 -242 11 -247 16 -5 4 5 23 23 44
17 20 42 53 55 73 l23 37 164 0 163 0 21 -57z m635 23 c23 -6 25 -12 25 -59
-1 -82 3 -81 -253 -83 -122 -1 -225 1 -228 4 -3 3 4 23 15 46 15 28 30 43 49
47 25 5 153 41 177 49 19 6 190 3 215 -4z"/>
<path d="M5448 6373 l-1616 -3 5 -143 c3 -86 10 -150 18 -162 6 -11 13 -54 14
-95 3 -133 41 -636 71 -955 60 -632 81 -863 87 -986 6 -117 5 -126 -13 -133
-10 -4 -88 -12 -172 -17 -115 -7 -162 -14 -190 -28 -22 -11 -79 -23 -142 -29
-102 -11 -378 -79 -403 -100 -6 -6 -73 -38 -147 -72 -74 -34 -150 -73 -168
-87 -49 -37 -122 -140 -122 -172 0 -40 63 -164 94 -184 45 -30 112 -64 142
-72 43 -12 43 -12 52 -14 4 0 13 -15 19 -31 8 -21 16 -28 27 -24 10 4 16 1 16
-9 0 -26 21 -31 36 -8 22 30 56 26 83 -10 29 -40 62 -52 142 -53 53 -1 73 -6
105 -27 35 -24 52 -27 154 -33 63 -3 149 -12 190 -20 41 -8 77 -13 79 -10 2 2
11 -2 20 -10 23 -20 70 -27 201 -32 63 -2 145 -9 183 -15 58 -9 69 -15 82 -39
l14 -28 673 -7 c417 -5 842 -3 1118 3 450 11 481 14 640 57 30 8 134 19 230
25 96 6 193 15 215 21 48 13 196 33 355 49 80 8 146 22 217 46 56 19 111 34
121 34 11 0 34 13 52 29 25 21 44 29 75 29 118 3 323 135 379 245 27 53 28 60
17 99 -15 48 -100 142 -170 187 -25 17 -96 51 -156 76 -61 26 -123 53 -140 60
-55 23 -129 44 -245 69 -221 48 -361 68 -658 97 -83 8 -125 16 -129 25 -5 14
39 602 62 834 8 74 21 252 29 395 31 527 79 1056 105 1150 17 65 15 85 -11 83
-13 -2 -750 -4 -1640 -5z m185 -429 c102 -23 201 -73 303 -153 162 -125 250
-232 318 -388 60 -137 70 -185 70 -328 -1 -155 -16 -222 -78 -350 -113 -230
-242 -362 -422 -436 -120 -50 -222 -64 -394 -55 -104 5 -141 12 -226 41 -56
19 -129 47 -161 63 -72 37 -202 147 -248 210 -48 66 -140 274 -159 361 -21 91
-21 229 -2 336 16 87 102 291 154 366 74 108 261 242 414 299 133 49 303 63
431 34z m-1579 -2392 c5 -8 36 -192 36 -213 0 -7 -48 -9 -153 -7 l-152 3 -45
35 c-97 76 -102 102 -22 111 29 4 80 19 115 33 51 22 108 34 204 45 6 0 14 -3
17 -7z m2999 -8 c136 -7 149 -9 159 -28 16 -31 28 -36 91 -36 58 0 97 -12 97
-30 0 -13 -68 -88 -90 -100 -9 -5 -83 -14 -165 -20 -87 -7 -175 -20 -210 -31
-33 -10 -66 -19 -72 -19 -14 0 -18 133 -6 228 5 48 8 53 27 48 12 -3 88 -9
169 -12z"/>
<path d="M5385 5809 c-67 -11 -238 -71 -297 -104 -141 -79 -281 -278 -324
-463 -24 -100 -15 -316 16 -396 55 -144 143 -248 305 -361 156 -108 229 -135
365 -135 222 0 357 57 529 224 84 82 121 130 153 199 62 135 84 325 53 452
-35 144 -133 308 -244 407 -67 60 -240 144 -366 177 -46 12 -118 12 -190 0z
m207 -349 c143 -44 268 -202 276 -350 8 -134 -58 -290 -152 -362 -71 -53 -150
-72 -273 -66 -112 6 -161 24 -240 86 -37 30 -60 60 -85 109 -31 63 -33 76 -37
185 -4 149 11 197 88 280 117 127 263 168 423 118z"/>
<path d="M5376 5280 c-71 -23 -125 -109 -126 -200 0 -74 14 -118 51 -163 45
-55 82 -71 164 -71 59 0 78 4 117 27 133 78 155 233 49 344 -17 18 -44 39 -61
48 -37 19 -153 28 -194 15z"/>
<path d="M9376 3204 c-21 -7 -52 -22 -70 -33 -17 -10 -83 -33 -146 -51 -63
-17 -124 -37 -135 -44 -11 -7 -33 -11 -50 -10 -51 4 -98 -14 -144 -56 -40 -36
-46 -39 -61 -25 -9 8 -24 15 -33 15 -23 0 -87 -42 -87 -56 0 -16 -24 -24 -68
-24 -55 0 -211 -29 -251 -47 -20 -8 -70 -19 -111 -23 -53 -6 -94 -18 -137 -39
-46 -24 -74 -31 -116 -31 -69 0 -272 -26 -397 -50 -195 -38 -521 -79 -803
-100 -70 -5 -200 -16 -290 -25 -235 -22 -725 -54 -843 -56 -56 -1 -107 -5
-113 -8 -7 -5 -9 -24 -5 -54 l7 -47 46 0 c49 0 465 36 516 45 17 2 138 9 270
15 562 25 1014 79 1350 161 125 30 116 30 105 8 -19 -34 -453 -349 -630 -456
-156 -94 -405 -211 -573 -269 -37 -12 -80 -32 -95 -43 -15 -10 -57 -25 -92
-31 -36 -7 -101 -21 -145 -31 -120 -28 -202 -39 -356 -48 -82 -6 -146 -14
-154 -21 -24 -20 -433 -17 -575 3 -203 30 -219 25 -333 -104 -83 -94 -339
-352 -525 -529 -174 -166 -204 -209 -166 -238 14 -10 37 -12 91 -8 66 6 72 5
78 -14 9 -29 44 -40 129 -40 103 0 136 -8 147 -36 4 -13 16 -24 26 -24 59 0
413 -32 438 -40 17 -5 95 -19 175 -30 219 -31 403 -25 780 25 107 14 249 33
315 41 66 9 147 25 180 36 33 11 89 24 125 29 36 5 77 18 92 29 15 11 41 20
58 20 51 0 118 21 144 45 13 12 37 22 55 23 45 1 82 15 205 77 60 30 115 55
123 55 7 0 103 47 213 104 141 74 233 130 317 194 65 49 159 114 208 145 109
67 216 158 444 377 239 229 555 613 683 830 57 96 206 371 235 433 25 54 20
57 -51 31z"/>
</g>
</svg>
