<?xml version="1.0" standalone="no"?>
<!DOCTYPE svg PUBLIC "-//W3C//DTD SVG 20010904//EN"
 "http://www.w3.org/TR/2001/REC-SVG-20010904/DTD/svg10.dtd">
<svg version="1.0" xmlns="http://www.w3.org/2000/svg"
 width="558.000000pt" height="558.000000pt" viewBox="0 0 558.000000 558.000000"
 preserveAspectRatio="xMidYMid meet">
<metadata>
Created by potrace 1.14, written by Peter Selinger 2001-2017
</metadata>
<g transform="translate(0.000000,558.000000) scale(0.100000,-0.100000)"
fill="#000000" stroke="none">
<path d="M0 3920 c0 -913 3 -1660 7 -1660 9 0 153 147 276 283 55 62 104 113
108 115 5 2 68 69 140 150 73 81 140 152 148 158 9 7 60 61 114 122 54 60 109
114 121 120 12 5 54 38 94 73 110 98 132 114 197 143 33 15 67 31 75 37 42 26
139 56 210 63 30 4 78 10 105 16 56 10 2938 14 2948 4 9 -10 -35 -58 -300
-327 l-234 -237 -1022 0 c-1086 0 -1292 -6 -1358 -41 -20 -10 -42 -19 -48 -19
-45 0 -227 -121 -273 -182 -14 -18 -139 -148 -277 -288 -139 -140 -274 -277
-300 -305 -27 -27 -66 -65 -89 -82 l-41 -33 -300 0 -301 0 0 -1015 0 -1015
2790 0 2790 0 0 2790 0 2790 -2790 0 -2790 0 0 -1660z m5554 -378 c5 -9 -153
-179 -354 -383 -58 -58 -116 -119 -130 -135 -14 -16 -79 -86 -145 -155 -232
-243 -393 -415 -466 -496 -40 -46 -76 -83 -80 -83 -4 0 -60 -58 -124 -130
l-117 -130 -443 0 c-244 0 -446 4 -449 8 -3 5 32 47 77 93 121 125 365 385
431 459 32 36 75 81 96 100 21 19 66 67 100 105 99 109 319 344 385 410 34 33
107 112 164 175 56 63 116 127 132 143 l29 27 445 0 c244 0 446 -4 449 -8z
m-1645 -661 c10 -7 -2 -24 -51 -72 -36 -35 -91 -93 -123 -129 -32 -36 -116
-125 -186 -197 l-128 -133 -718 0 c-449 -1 -735 -5 -763 -11 -25 -6 -58 -13
-74 -16 -36 -7 -160 -85 -179 -113 -8 -11 -48 -56 -89 -100 l-76 -80 -369 0
c-204 0 -372 3 -376 6 -3 3 54 67 127 142 73 76 159 166 190 202 32 36 77 83
100 105 24 22 87 89 142 149 88 97 197 186 226 186 6 0 19 7 29 16 15 14 102
36 184 47 62 8 2121 6 2134 -2z m906 -550 c78 -72 97 -149 56 -230 -29 -57
-58 -71 -144 -71 -72 0 -73 1 -112 40 -38 39 -39 40 -39 119 0 87 5 97 68 143
55 40 128 40 171 -1z"/>
<path d="M4660 2293 c-48 -34 -53 -46 -48 -119 5 -84 27 -106 110 -112 52 -4
62 -2 81 19 74 77 77 139 9 212 -34 36 -101 37 -152 0z m117 -25 c25 -23 29
-57 12 -90 -8 -14 -7 -28 2 -49 21 -52 -14 -50 -43 2 -20 34 -38 31 -38 -6 0
-27 -17 -42 -31 -28 -16 16 -20 134 -7 165 11 23 19 28 47 28 22 0 43 -8 58
-22z"/>
<path d="M4714 2245 c-9 -24 0 -50 20 -53 27 -6 40 12 27 36 -14 26 -40 36
-47 17z"/>
</g>
</svg>
